<?xml version="1.0" encoding="UTF-8"?>
<svg xmlns="http://www.w3.org/2000/svg" viewBox="0 0 3073.79 3073.79">
  <defs>
    <style>
      .cls-1 {
        font-family: YuGothicUI-Semilight, 'Yu Gothic UI';
        font-size: 282.78px;
        font-weight: 300;
      }

      .cls-1, .cls-2, .cls-3 {
        fill: #fff;
      }

      .cls-4 {
        fill: #1d1d1b;
      }

      .cls-3 {
        font-family: MVBoli, 'MV Boli';
        font-size: 131.25px;
      }

      .cls-5 {
        letter-spacing: -.04em;
      }
    </style>
  </defs>
  <g id="Camada_3" data-name="Camada 3">
    <rect class="cls-4" width="3073.79" height="3073.79"/>
  </g>
  <g id="Camada_2" data-name="Camada 2">
    <text class="cls-3" transform="translate(1167.9 2114.94) scale(1.08 1)"><tspan x="0" y="0">GALLERY</tspan></text>
    <path class="cls-2" d="M1346.36,1668.01c-13.96-8.08-27.51-14.71-36.17-29.12-16.92-28.16-6.05-58.41,19.52-75.97-16.41-80.25,9.28-163.26,72.52-215.62,3.49-62.73-3.55-128.73.25-191.08,8.15-133.58,189.27-114.08,198.96,4.64,3.78,46.36-3.52,97.83-.04,144.29,4.05,54.03,44.06,53.5,72.9,88.06,68.38,81.92,47.96,261.26-73.63,280.09l-176.23,1.43c-10.96,17.03-31.61,27.25-51.54,28.94-4.48.38-26.55,1.45-26.55-3.77v-31.89ZM1607.53,1352.91l-12.19-25c-18.01-63.41,17.58-165.79-25.81-218.67-49.62-60.47-147.28-41.99-156.17,39.63l-.19,188.84c1.73.33,2.94-.14,4.48-.81,10.44-4.55,21.85-13.42,33.5-18.13,9.38-3.78,19.43-5.92,28.92-9.31l-.1-35.51c-26.79-1.7-49.41-20.06-56.57-45.93-4.95-17.89-4.16-68.44-2.71-88.53,5.19-71.86,121.8-69.79,128.95-1.27-3.22,64.22,4.93,133.67.25,197.28-.72,9.72-3.21,20.85-7.65,29.54,21.13-8.03,42.23-16.42,65.29-12.14ZM1468.99,1098.2c-16.41,2.26-33.9,17.93-36.91,34.46-2.9,15.96-2.37,67.22-.67,84.33,6.16,62.07,102.34,62.32,107.85-1.45,1.65-19.06,1.8-57.06-.07-75.96-3.63-36.76-38.54-45.74-70.2-41.38ZM1539.21,1341.53v-94.91c-11.9,14.86-28.82,26.73-48.58,27.34-1.35,7.89,2.67,40.16-2.17,44.14-2.17,1.79-30.13,8.93-36.84,11.75-5.06,2.13-34.4,17.55-35.21,20.93,10.38,40.66,52.83,65.25,91.4,41.33,15.63-9.69,29.35-32.37,31.4-50.6ZM1402.54,1548.81l-.02-186.78c-48.65,41.31-71.22,105.98-66.78,169.29.3,4.21,2.14,19.34,3.3,22.51.61,1.68,1.25,2.54,3.24,2.34,3.85-.38,16.83-7.37,21.53-7.37h38.72ZM1590.84,1362.03c-85.79,10.26-133.33,105.67-116.22,185.31,5.68,26.43,12.14,21.72,28.19,38.63,3.16,3.33,7.42,8.62,9.07,12.95h78.96v-236.89ZM1601.47,1662.7c79.18-12.13,108.55-105.25,100.2-175.36-6.34-53.24-40.4-119.93-100.2-123.78v299.15ZM1413.17,1374.18v172.35c3.82,4.22,10.61,1.66,15.92,2.3,12.82,1.55,25.35,5.79,37.22,10.6-12.79-52.15-3.35-105.65,27.36-149.55-21.87,5.8-45.35-.71-62.29-15.18-7.37-6.29-11.45-14.03-18.2-20.52ZM1402.54,1557.92h-29.61c-4.36,0-19.11,4.58-23.93,6.44-46.48,17.87-49.29,70.79-3.42,90.76,1.39-23.85,18.34-47.72,42.08-53.62,5.86-1.46,11.97-.92,17.76-2.73l-2.87-40.85ZM1524.02,1662.7c-2.31-57.68-50.15-102.33-107.2-104.7l-2.21.56c-3.8,21.8,2.37,49.37,13.48,68.72,7.62,13.27,28.73,35.42,45.06,35.42h50.87ZM1445.06,1662.7c-16.38-13.57-28.15-30.45-35.05-50.74-5.92-8.24-31.07,3.53-37.7,9.11-4.43,3.73-15.32,19.1-15.32,24.17v47.83c17.8,1.14,34.51-1.37,48.61-12.89,3.49-2.85,14.74-17.48,15.93-17.48h23.54ZM1590.84,1609.55h-69.85c6.01,17.38,13.43,34.24,13.67,53.15h56.18v-53.15Z"/>
    <text class="cls-1" transform="translate(1000.39 1959.26) scale(.66 1)"><tspan x="0" y="0">MONALIS</tspan><tspan class="cls-5" x="1191.31" y="0">A</tspan><tspan x="1359.9" y="0">’S</tspan></text>
  </g>
</svg>