<?xml version="1.0" encoding="UTF-8"?>
<svg xmlns="http://www.w3.org/2000/svg" version="1.1" viewBox="0 0 3061.42 3061.42">
  <!-- Generator: Adobe Illustrator 29.6.1, SVG Export Plug-In . SVG Version: 2.1.1 Build 9)  -->
  <defs>
    <style>
      .st0 {
        font-family: MVBoli, 'MV Boli';
        font-size: 367.65px;
      }

      .st0, .st1, .st2 {
        fill: #fff;
      }

      .st2 {
        font-family: YuGothicUI-Semilight, 'Yu Gothic UI';
        font-size: 792.07px;
        font-weight: 300;
      }

      .st3 {
        display: none;
      }

      .st4 {
        fill: #1d1d1b;
      }
    </style>
  </defs>
  <g id="Camada_3" class="st3">
    <rect class="st4" width="3073.79" height="3073.79"/>
  </g>
  <g id="Camada_2">
    <text class="st0" transform="translate(536.61 2964.28) scale(1.08 1)"><tspan x="0" y="0">GALLERY</tspan></text>
    <path class="st1" d="M1036.47,1712.41c-39.1-22.64-77.05-41.2-101.32-81.58-47.39-78.87-16.96-163.6,54.68-212.79-45.96-224.79,25.99-457.31,203.14-603.97,9.76-175.72-9.96-360.58.7-535.22,22.83-374.17,530.15-319.55,557.3,13,10.6,129.85-9.86,274.01-.1,404.17,11.35,151.34,123.41,149.85,204.2,246.66,191.53,229.47,134.32,731.8-206.23,784.55l-493.63,4.01c-30.7,47.7-88.55,76.32-144.37,81.05-12.54,1.06-74.37,4.07-74.37-10.57v-89.32ZM1768.03,829.81l-34.15-70.02c-50.45-177.61,49.24-464.39-72.29-612.5-138.98-169.37-412.55-117.62-437.42,111.01l-.54,528.95c4.83.92,8.24-.4,12.56-2.28,29.26-12.75,61.19-37.6,93.84-50.77,26.27-10.6,54.43-16.59,81-26.06l-.29-99.45c-75.03-4.78-138.41-56.19-158.45-128.66-13.85-50.11-11.66-191.69-7.59-247.98,14.54-201.3,341.16-195.48,361.2-3.55-9.03,179.87,13.8,374.41.69,552.58-2.01,27.24-8.98,58.41-21.43,82.73,59.18-22.49,118.28-45.99,182.87-34.01ZM1379.97,116.37c-45.96,6.33-94.95,50.21-103.38,96.53-8.14,44.71-6.64,188.3-1.89,236.22,17.26,173.87,286.67,174.55,302.1-4.06,4.61-53.4,5.04-159.83-.19-212.78-10.17-102.95-107.95-128.12-196.64-115.91ZM1576.65,797.93v-265.83c-33.34,41.63-80.73,74.86-136.08,76.59-3.78,22.09,7.49,112.5-6.08,123.65-6.09,5.01-84.41,25.01-103.19,32.92-14.17,5.97-96.37,49.17-98.63,58.63,29.07,113.88,147.98,182.76,256.02,115.77,43.78-27.14,82.2-90.67,87.95-141.73ZM1193.85,1378.52l-.05-523.16c-136.28,115.71-199.5,296.87-187.05,474.19.83,11.79,5.99,54.16,9.24,63.06,1.71,4.69,3.49,7.11,9.08,6.56,10.78-1.06,47.15-20.65,60.31-20.65h108.46ZM1721.27,855.36c-240.29,28.73-373.46,295.97-325.53,519.06,15.9,74.02,34,60.83,78.95,108.19,8.84,9.32,20.78,24.15,25.4,36.27h221.17v-663.52ZM1751.04,1697.52c221.78-33.98,304.04-294.81,280.66-491.2-17.76-149.13-113.15-335.93-280.66-346.71v837.91ZM1223.62,889.38v482.76c10.7,11.82,29.72,4.64,44.6,6.44,35.9,4.35,71,16.22,104.24,29.69-35.84-146.07-9.38-295.92,76.63-418.89-61.26,16.24-127.02-2-174.48-42.52-20.64-17.63-32.07-39.31-50.99-57.47ZM1193.85,1404.04h-82.94c-12.22,0-53.53,12.84-67.04,18.03-130.18,50.06-138.07,198.29-9.57,254.23,3.9-66.8,51.38-133.67,117.86-150.19,16.42-4.08,33.52-2.59,49.73-7.65l-8.05-114.42ZM1534.12,1697.52c-6.46-161.55-140.48-286.63-300.27-293.28l-6.18,1.57c-10.63,61.08,6.63,138.29,37.75,192.48,21.35,37.18,80.48,99.22,126.2,99.22h142.49ZM1312.94,1697.52c-45.87-38.01-78.86-85.3-98.19-142.13-16.59-23.08-87.02,9.9-105.61,25.53-12.41,10.44-42.9,53.51-42.9,67.69v133.98c49.86,3.2,96.67-3.83,136.16-36.1,9.77-7.99,41.3-48.96,44.61-48.96h65.93ZM1721.27,1548.65h-195.65c16.83,48.68,37.62,95.92,38.28,148.87h157.37v-148.87Z"/>
    <text class="st2" transform="translate(67.42 2528.19) scale(.66 1)"><tspan x="0" y="0">MONALISA’S</tspan></text>
  </g>
</svg>